{
	"patcher" : 	{
		"fileversion" : 1,
		"appversion" : 		{
			"major" : 6,
			"minor" : 1,
			"revision" : 7,
			"architecture" : "x64"
		}
,
		"rect" : [ 617.0, 44.0, 823.0, 581.0 ],
		"bglocked" : 0,
		"openinpresentation" : 0,
		"default_fontsize" : 12.0,
		"default_fontface" : 0,
		"default_fontname" : "Arial",
		"gridonopen" : 0,
		"gridsize" : [ 15.0, 15.0 ],
		"gridsnaponopen" : 0,
		"statusbarvisible" : 2,
		"toolbarvisible" : 1,
		"boxanimatetime" : 200,
		"imprint" : 0,
		"enablehscroll" : 1,
		"enablevscroll" : 1,
		"devicewidth" : 0.0,
		"description" : "",
		"digest" : "",
		"tags" : "",
		"boxes" : [ 			{
				"box" : 				{
					"fontname" : "Arial",
					"fontsize" : 12.0,
					"id" : "obj-22",
					"linecount" : 5,
					"maxclass" : "message",
					"numinlets" : 2,
					"numoutlets" : 1,
					"outlettype" : [ "" ],
					"patching_rect" : [ 492.0, 334.0, 424.0, 72.0 ],
					"text" : "0.061 0.0772 0.157 0.173 0.2476 0.2789 0.3365 0.392 0.4107 0.4285 0.5673 0.6856 0.6924 0.7827 0.8043 0.9649 0.9741 1.0567 1.1019 1.1576 1.2817 1.347 1.4255 1.4727 1.5042 1.5987 1.6816 1.7104 1.7461 1.8033 1.887 1.9625 2.0063 2.07 2.1599 2.2462 2.2866 2.3311 2.4178 2.4993 2.5387 2.6053 2.6932 2.7558 2.8257 2.8703 2.9425 2.9868 3.0415"
				}

			}
, 			{
				"box" : 				{
					"fontname" : "Arial",
					"fontsize" : 12.0,
					"id" : "obj-19",
					"maxclass" : "message",
					"numinlets" : 2,
					"numoutlets" : 1,
					"outlettype" : [ "" ],
					"patching_rect" : [ 450.0, 274.0, 50.0, 18.0 ],
					"text" : "50"
				}

			}
, 			{
				"box" : 				{
					"fontname" : "Arial",
					"fontsize" : 12.0,
					"id" : "obj-14",
					"maxclass" : "newobj",
					"numinlets" : 1,
					"numoutlets" : 2,
					"outlettype" : [ "bang", "bang" ],
					"patching_rect" : [ 396.0, 98.0, 34.0, 20.0 ],
					"text" : "t b b"
				}

			}
, 			{
				"box" : 				{
					"fontname" : "Arial",
					"fontsize" : 12.0,
					"id" : "obj-13",
					"linecount" : 25,
					"maxclass" : "message",
					"numinlets" : 2,
					"numoutlets" : 1,
					"outlettype" : [ "" ],
					"patching_rect" : [ 238.0, 274.0, 151.0, 340.0 ],
					"text" : "1 -1.935753 0.943322 -0.300787 0.35997 0.27817 -0.18293 -0.383601 0.276914 0.039826 0.104673 -0.371102 0.261226 -0.412071 0.496433 -0.203378 0.122776 -0.321898 0.286982 0.016182 0.371245 -0.381853 -0.271013 0.156725 0.038868 -0.282674 0.527831 -0.355583 0.232179 -0.035638 -0.001931 0.034739 -0.063267 -0.148878 0.122554 -0.007954 0.122365 -0.274934 -0.009628 0.113526 0.151775 0.137065 -0.143234 -0.047514 -0.225458 0.083777 0.046688 0.095668 0.034927 -0.071179"
				}

			}
, 			{
				"box" : 				{
					"fontname" : "Arial",
					"fontsize" : 12.0,
					"id" : "obj-11",
					"linecount" : 2,
					"maxclass" : "message",
					"numinlets" : 2,
					"numoutlets" : 1,
					"outlettype" : [ "" ],
					"patching_rect" : [ 492.0, 185.0, 262.0, 31.0 ],
					"text" : "compile \"/Users/victor/Google Drive/stage-m1/VOKynesiS/lsf2lpcJS/lsf2lpc.js\""
				}

			}
, 			{
				"box" : 				{
					"fontname" : "Arial",
					"fontsize" : 12.0,
					"id" : "obj-9",
					"maxclass" : "newobj",
					"numinlets" : 1,
					"numoutlets" : 1,
					"outlettype" : [ "" ],
					"patching_rect" : [ 266.0, 238.0, 19.0, 20.0 ],
					"saved_object_attributes" : 					{
						"filename" : "",
						"parameter_enable" : 0
					}
,
					"text" : "js"
				}

			}
, 			{
				"box" : 				{
					"fontname" : "Arial",
					"fontsize" : 12.0,
					"id" : "obj-8",
					"linecount" : 3,
					"maxclass" : "message",
					"numinlets" : 2,
					"numoutlets" : 1,
					"outlettype" : [ "" ],
					"patching_rect" : [ 15.0, 131.0, 785.0, 45.0 ],
					"text" : "0.061 0.0772 0.157 0.173 0.2476 0.2789 0.3365 0.392 0.4107 0.4285 0.5673 0.6856 0.6924 0.7827 0.8043 0.9649 0.9741 1.0567 1.1019 1.1576 1.2817 1.347 1.4255 1.4727 1.5042 1.5987 1.6816 1.7104 1.7461 1.8033 1.887 1.9625 2.0063 2.07 2.1599 2.2462 2.2866 2.3311 2.4178 2.4993 2.5387 2.6053 2.6932 2.7558 2.8257 2.8703 2.9425 2.9868 3.0415"
				}

			}
, 			{
				"box" : 				{
					"id" : "obj-4",
					"maxclass" : "button",
					"numinlets" : 1,
					"numoutlets" : 1,
					"outlettype" : [ "bang" ],
					"patching_rect" : [ 396.0, -4.0, 96.0, 96.0 ]
				}

			}
, 			{
				"box" : 				{
					"fontname" : "Arial",
					"fontsize" : 12.0,
					"id" : "obj-2",
					"maxclass" : "newobj",
					"numinlets" : 1,
					"numoutlets" : 2,
					"outlettype" : [ "", "" ],
					"patching_rect" : [ 396.0, 238.0, 69.0, 20.0 ],
					"saved_object_attributes" : 					{
						"filename" : "/Users/victor/Google Drive/stage-m1/VOKynesiS/lsf2lpcJS/lsf2lpc.js",
						"parameter_enable" : 0
					}
,
					"text" : "js lsf2lpc.js"
				}

			}
 ],
		"lines" : [ 			{
				"patchline" : 				{
					"destination" : [ "obj-2", 0 ],
					"disabled" : 0,
					"hidden" : 0,
					"midpoints" : [ 501.5, 216.0, 405.5, 216.0 ],
					"source" : [ "obj-11", 0 ]
				}

			}
, 			{
				"patchline" : 				{
					"destination" : [ "obj-11", 0 ],
					"disabled" : 0,
					"hidden" : 0,
					"midpoints" : [ 420.5, 120.0, 501.5, 120.0 ],
					"source" : [ "obj-14", 1 ]
				}

			}
, 			{
				"patchline" : 				{
					"destination" : [ "obj-8", 0 ],
					"disabled" : 0,
					"hidden" : 0,
					"midpoints" : [ 405.5, 120.0, 24.0, 120.0, 24.0, 126.0, 24.5, 126.0 ],
					"source" : [ "obj-14", 0 ]
				}

			}
, 			{
				"patchline" : 				{
					"destination" : [ "obj-13", 1 ],
					"disabled" : 0,
					"hidden" : 0,
					"midpoints" : [ 405.5, 258.0, 379.5, 258.0 ],
					"source" : [ "obj-2", 0 ]
				}

			}
, 			{
				"patchline" : 				{
					"destination" : [ "obj-19", 1 ],
					"disabled" : 0,
					"hidden" : 0,
					"midpoints" : [ 455.5, 258.0, 490.5, 258.0 ],
					"source" : [ "obj-2", 1 ]
				}

			}
, 			{
				"patchline" : 				{
					"destination" : [ "obj-14", 0 ],
					"disabled" : 0,
					"hidden" : 0,
					"midpoints" : [ 405.5, 93.0, 405.5, 93.0 ],
					"source" : [ "obj-4", 0 ]
				}

			}
, 			{
				"patchline" : 				{
					"destination" : [ "obj-2", 0 ],
					"disabled" : 0,
					"hidden" : 0,
					"midpoints" : [ 24.5, 216.0, 405.5, 216.0 ],
					"source" : [ "obj-8", 0 ]
				}

			}
 ],
		"dependency_cache" : [ 			{
				"name" : "lsf2lpc.js",
				"bootpath" : "/Users/victor/Google Drive/stage-m1/VOKynesiS/lsf2lpcJS",
				"patcherrelativepath" : ".",
				"type" : "TEXT",
				"implicit" : 1
			}
 ]
	}

}
